<svg xmlns="http://www.w3.org/2000/svg" xmlns:xlink="http://www.w3.org/1999/xlink" id="Layer_11" width="739.1" height="808.3" x="0" style="enable-background:new 0 0 739.1 808.3" y="0" version="1.1" viewBox="0 0 739.1 808.3" xml:space="preserve"><style type="text/css">.st0{opacity:.1;fill:#44bba4;enable-background:new}.st1{fill:#0033ad}.st2{fill:#ff5553}.st3{fill:#44bba4}.st4{fill:#fcdfa6}.st5{fill:#232323}.st6{fill:#fff}</style><path d="M404.7,790.5l-1.7-773l0,0c0-9.3-7.3-17-16.6-17.5c-3.4-0.2-6.8,0.6-9.8,2.3l0,0L42.3,196.4l0,0	c-2.3,1.3-4.3,3.2-5.8,5.5c-1.9,2.8-2.9,6.2-2.9,9.6l0,0L34.5,598l0,0c0,2.7,0.7,5.4,1.9,7.8c1.5,3.1,3.9,5.6,6.9,7.3l0,0	l335.1,192.5l0,0c2.3,1.4,5,2.2,7.7,2.3c9.7,0.5,18-6.9,18.6-16.6L404.7,790.5L404.7,790.5z" class="st0"/><path d="M403,18.6c0.6-9.7-6.8-18.1-16.5-18.7c-9.7-0.6-18.1,6.8-18.7,16.5c-0.6,9.7,6.8,18.1,16.5,18.7	c0,0,0.1,0,0.1,0c9.6,0.6,17.9-6.6,18.6-16.2C403,18.8,403,18.7,403,18.6z" class="st1"/><path d="M704.9,218c4.4,8.7,14.9,12.2,23.6,7.8c8.7-4.4,12.2-14.9,7.8-23.6s-14.9-12.2-23.6-7.8c0,0,0,0,0,0	C704,198.8,700.5,209.3,704.9,218C704.9,218,704.9,218,704.9,218z" class="st2"/><path d="M706.7,587c-5.3,8.1-3.1,19.1,5.1,24.4c8.1,5.3,19.1,3.1,24.4-5.1s3.1-19.1-5.1-24.4c0,0,0,0,0,0	C723,576.6,712,578.9,706.7,587z" class="st3"/><path d="M404.7,791.6c0.6-9.7-6.9-18-16.6-18.6c-9.7-0.6-18,6.9-18.6,16.6c-0.6,9.7,6.9,18.1,16.6,18.6c0,0,0,0,0,0	C395.8,808.7,404.1,801.3,404.7,791.6z" class="st1"/><path d="M65.9,221.2c5.4-8.1,3.1-19.1-5-24.4c-8.1-5.4-19.1-3.1-24.4,5c-5.4,8.1-3.1,19.1,5,24.4c0,0,0,0,0,0	C49.6,231.6,60.5,229.3,65.9,221.2z" class="st4"/><path d="M67.7,590.2c-4.4-8.7-14.9-12.2-23.6-7.8c-8.7,4.4-12.2,14.9-7.8,23.6c4.4,8.7,14.9,12.2,23.6,7.8c0,0,0,0,0,0	C68.6,609.5,72.1,599,67.7,590.2C67.7,590.3,67.7,590.3,67.7,590.2z" class="st2"/><polygon points="302.8 581 507 581 609.1 404.1 507 227.2 302.8 227.2 200.7 404.1" class="st4"/><polyline points="337.4 551.5 302.8 581 507 581 608.9 494.1 470.6 494.1 337.4 551.5" class="st5"/><polygon points="462.3 494.1 669.9 494.1 652.9 523.6 462.3 523.6" class="st5"/><polyline points="337.4 521 302.8 581 507 581 608.9 404.1 470.6 404.1 337.4 521" class="st3"/><polygon points="509.8 374.1 739.1 374.1 704.5 434.1 509.8 434.1" class="st6"/><polygon points="479.1 434.1 722.5 434.1 687.9 494.1 479.1 494.1" class="st3"/><polygon points="51.2 314.1 356.7 314.1 356.7 374.1 16.6 374.1" class="st4"/><polygon points="507 227.2 472.4 287.2 522.5 374.1 591.8 374.1" class="st2"/><polygon points="302.8 581 337.4 521 287.3 434.1 218 434.1" class="st2"/><rect width="69.3" height="1" x="200.7" y="343.5" class="st6" transform="matrix(0.4998 -0.8661 0.8661 0.4998 -180.2862 375.8706)"/><rect width="69.3" height="1" x="166.6" y="343.6" class="st6" transform="matrix(0.4998 -0.8661 0.8661 0.4998 -197.371 346.4019)"/><rect width="69.3" height="1" x="132.6" y="343.6" class="st6" transform="matrix(0.4998 -0.8661 0.8661 0.4998 -214.3507 316.9211)"/><rect width="69.3" height="1" x="98.6" y="343.5" class="st6" transform="matrix(0.4998 -0.8661 0.8661 0.4998 -231.349 287.4453)"/><rect width="69.3" height="1" x="64.5" y="343.6" class="st6" transform="matrix(0.4998 -0.8661 0.8661 0.4998 -248.4337 257.9666)"/><rect width="69.3" height="1" x="30.5" y="343.6" class="st6" transform="matrix(0.4998 -0.8661 0.8661 0.4998 -265.4235 228.4858)"/><rect width="69.3" height="1" x="454.9" y="256.8" class="st6" transform="matrix(0.5003 -0.8659 0.8659 0.5003 21.8768 552.441)"/><rect width="69.3" height="1" x="420.9" y="256.7" class="st6" transform="matrix(0.5003 -0.8659 0.8659 0.5003 4.8952 522.9786)"/><rect width="69.3" height="1" x="386.9" y="256.7" class="st6" transform="matrix(0.5003 -0.8659 0.8659 0.5003 -12.0777 493.5113)"/><rect width="69.3" height="1" x="352.8" y="256.7" class="st6" transform="matrix(0.4998 -0.8661 0.8661 0.4998 -28.9601 464.2512)"/><rect width="69.3" height="1" x="318.8" y="256.7" class="st6" transform="matrix(0.4998 -0.8661 0.8661 0.4998 -45.9499 434.7704)"/><rect width="69.3" height="1" x="284.2" y="316.6" class="st6" transform="matrix(0.4998 -0.8661 0.8661 0.4998 -115.2036 434.7753)"/><rect width="69.3" height="1" x="249.5" y="376.7" class="st6" transform="matrix(0.4998 -0.8661 0.8661 0.4998 -184.5422 434.7921)"/><rect width="69.3" height="1" x="284.8" y="256.7" class="st6" transform="matrix(0.4998 -0.8661 0.8661 0.4998 -62.9482 405.2946)"/><rect width="69.3" height="1" x="250.1" y="316.7" class="st6" transform="matrix(0.4998 -0.8661 0.8661 0.4998 -132.2783 405.3065)"/><rect width="69.3" height="1" x="215.5" y="376.7" class="st6" transform="matrix(0.4998 -0.8661 0.8661 0.4998 -201.5319 405.3113)"/><rect width="100.3" height="1" x="227.6" y="270.1" class="st6" transform="matrix(0.4998 -0.8661 0.8661 0.4998 -95.4836 375.8848)"/><polygon points="337.4 521 270 404.1 337.4 287.2 472.4 287.2 539.8 404.1 472.4 521" class="st6"/><circle cx="358.9" cy="540.2" r="8.2" class="st6"/><circle cx="492.6" cy="566.4" r="8.2" class="st6"/><circle cx="524.2" cy="473.2" r="8.2" class="st6"/><circle cx="616.5" cy="446" r="8.2" class="st6"/><circle cx="646.6" cy="469.2" r="8.2" class="st6"/><circle cx="691.7" cy="458.6" r="5.1" class="st6"/><circle cx="598" cy="480.3" r="5.1" class="st6"/><circle cx="505.2" cy="505.8" r="5.1" class="st6"/><circle cx="454.7" cy="569.1" r="5.1" class="st6"/><circle cx="394.9" cy="538" r="5.1" class="st6"/><circle cx="355.3" cy="565.6" r="3.1" class="st6"/><circle cx="416.3" cy="560.6" r="3.1" class="st6"/><circle cx="489.7" cy="532" r="3.1" class="st6"/><circle cx="586.8" cy="446" r="3.1" class="st6"/><circle cx="671.5" cy="477" r="3.1" class="st6"/><circle cx="619.6" cy="481.4" r="3.1" class="st6"/><circle cx="545.6" cy="487.2" r="3.1" class="st6"/><polygon points="372.1 461 339.2 404.1 372.1 347.2 437.7 347.2 470.6 404.1 437.7 461" class="st1"/><polygon points="294.9 434.1 0 434.1 34.6 374.1 289.3 374.1" class="st6"/></svg>